<svg xmlns="http://www.w3.org/2000/svg" xmlns:xlink="http://www.w3.org/1999/xlink" viewBox="0 0 1366.35 749.94"><defs><style>.cls-1{fill:none;}.cls-2{clip-path:url(#clip-path);}.cls-3{opacity:0.3;fill:url(#Безымянный_градиент_6);}</style><clipPath id="clip-path"><path class="cls-1" d="M1101.65,422.2C1055.7,500.83,1007.1,553,972.51,585.62,957,600.27,762.56,781.24,694,739,624.21,696,795.93,470,669.86,305.67c-65.06-84.78-148.81-96.74-140.71-141.57,18.34-101.56,478.23-207.17,619-80.57C1247.39,172.78,1148.55,341.92,1101.65,422.2Z"/></clipPath><linearGradient id="Безымянный_градиент_6" x1="704.16" y1="359.91" x2="1366.35" y2="359.91" gradientUnits="userSpaceOnUse"><stop offset="0" stop-color="#09449d"/><stop offset="0.13" stop-color="#134da3"/><stop offset="0.34" stop-color="#2c64b2"/><stop offset="0.62" stop-color="#568bca"/><stop offset="0.94" stop-color="#90bfec"/><stop offset="1" stop-color="#9ccaf3"/></linearGradient></defs><title>Ресурс 5</title><g id="Слой_2" data-name="Слой 2"><g id="Слой_1-2" data-name="Слой 1"><g class="cls-2"><image width="512" height="288" transform="translate(0 14.69) scale(2.62 2.55)" xlink:href="../../images/unnamed.png"/></g><path class="cls-3" d="M1277.21,396.63c-45.95,78.64-94.55,130.84-129.13,163.42-15.55,14.65-210,195.62-278.5,153.4-69.8-43,101.92-269.06-24.16-433.35-65.06-84.78-148.81-96.74-140.71-141.57C723,37,1182.94-68.63,1323.71,58,1422.95,147.21,1324.11,316.36,1277.21,396.63Z"/></g></g></svg>