<svg xmlns="http://www.w3.org/2000/svg" xmlns:xlink="http://www.w3.org/1999/xlink" viewBox="0 0 96.74 96.74"><defs><style>.cls-1{fill:#fff;}.cls-2{fill:url(#Безымянный_градиент_16);}</style><linearGradient id="Безымянный_градиент_16" x1="22.28" y1="48.37" x2="74.46" y2="48.37" gradientUnits="userSpaceOnUse"><stop offset="0" stop-color="#09449d"/><stop offset="1" stop-color="#0071bc"/></linearGradient></defs><title>add-i</title><g id="Слой_2" data-name="Слой 2"><g id="Слой_1-2" data-name="Слой 1"><circle class="cls-1" cx="48.37" cy="48.37" r="48.37"/><path class="cls-2" d="M48.37,22.28A26.09,26.09,0,1,0,74.46,48.37,26.09,26.09,0,0,0,48.37,22.28Zm0,47.84A21.74,21.74,0,1,1,70.11,48.37,21.74,21.74,0,0,1,48.37,70.11ZM59.24,48.37a2.17,2.17,0,0,1-2.17,2.17H50.54v6.52a2.17,2.17,0,0,1-4.35,0V50.54H39.67a2.17,2.17,0,0,1,0-4.35h6.52V39.67a2.17,2.17,0,0,1,4.35,0v6.52h6.52A2.17,2.17,0,0,1,59.24,48.37Z"/></g></g></svg>