<svg xmlns="http://www.w3.org/2000/svg" xmlns:xlink="http://www.w3.org/1999/xlink" viewBox="0 0 96.74 96.74"><defs><style>.cls-1{fill:#fff;}.cls-2{fill:url(#Безымянный_градиент_16);}</style><linearGradient id="Безымянный_градиент_16" x1="22.64" y1="48.37" x2="74.1" y2="48.37" gradientUnits="userSpaceOnUse"><stop offset="0" stop-color="#09449d"/><stop offset="1" stop-color="#0071bc"/></linearGradient></defs><title>create-i</title><g id="Слой_2" data-name="Слой 2"><g id="Слой_1-2" data-name="Слой 1"><circle class="cls-1" cx="48.37" cy="48.37" r="48.37"/><path class="cls-2" d="M71.82,24.92a7.8,7.8,0,0,0-11,0l-35,35a10.69,10.69,0,0,0-3.15,7.61v4.42a2.15,2.15,0,0,0,2.15,2.15h4.42A10.69,10.69,0,0,0,36.82,71l35-35A7.8,7.8,0,0,0,71.82,24.92Zm-38,43a6.5,6.5,0,0,1-4.56,1.89H26.94V67.53A6.41,6.41,0,0,1,28.83,63L55.4,36.4l5,5Zm35-35-5.39,5.4-5-4.94,5.4-5.4a3.5,3.5,0,1,1,4.94,5h0Z"/></g></g></svg>