<svg xmlns="http://www.w3.org/2000/svg" viewBox="0 0 96.74 96.74"><defs><style>.cls-1{fill:#fff;}.cls-2{fill:#f70606;}</style></defs><title>error-i</title><g id="Слой_2" data-name="Слой 2"><g id="Слой_1-2" data-name="Слой 1"><circle class="cls-1" cx="48.37" cy="48.37" r="48.37"/><path class="cls-2" d="M70.81,25.93h0a1.92,1.92,0,0,0-2.71,0L48.37,45.66,28.64,25.93a1.92,1.92,0,0,0-2.71,0h0a1.92,1.92,0,0,0,0,2.71L45.66,48.37,25.93,68.1a1.92,1.92,0,0,0,0,2.71h0a1.92,1.92,0,0,0,2.71,0L48.37,51.08,68.1,70.81a1.92,1.92,0,0,0,2.71,0h0a1.92,1.92,0,0,0,0-2.71L51.08,48.37,70.81,28.64A1.92,1.92,0,0,0,70.81,25.93Z"/></g></g></svg>