<svg xmlns="http://www.w3.org/2000/svg" xmlns:xlink="http://www.w3.org/1999/xlink" viewBox="0 0 72.99 73"><defs><style>.cls-1{fill:url(#Безымянный_градиент_16);}.cls-2{fill:url(#Безымянный_градиент_16-2);}</style><linearGradient id="Безымянный_градиент_16" x1="29.94" y1="52.53" x2="62.01" y2="20.47" gradientUnits="userSpaceOnUse"><stop offset="0" stop-color="#09449d"/><stop offset="1" stop-color="#0071bc"/></linearGradient><linearGradient id="Безымянный_градиент_16-2" x1="-5.92" y1="58.16" x2="37.39" y2="14.84" xlink:href="#Безымянный_градиент_16"/></defs><title>exit-i</title><g id="Слой_2" data-name="Слой 2"><g id="Слой_1-2" data-name="Слой 1"><path class="cls-1" d="M69.44,27.9,57.64,16.1a3,3,0,0,0-4.3,4.3l11.8,11.8A6.26,6.26,0,0,1,66,33.39l-.13,0h0l-47.71.1a3,3,0,1,0,0,6.08h0l47.69-.1c.09,0,.16,0,.24,0a6.08,6.08,0,0,1-1,1.41L53.33,52.6A3,3,0,0,0,57.55,57l.07-.07,11.8-11.8a12.17,12.17,0,0,0,0-17.2Z"/><path class="cls-2" d="M21.29,66.92H15.21a9.13,9.13,0,0,1-9.13-9.13V15.21a9.13,9.13,0,0,1,9.13-9.13h6.08a3,3,0,0,0,0-6.08H15.21A15.23,15.23,0,0,0,0,15.21V57.79A15.23,15.23,0,0,0,15.21,73h6.08a3,3,0,0,0,0-6.08Z"/></g></g></svg>