<svg xmlns="http://www.w3.org/2000/svg" xmlns:xlink="http://www.w3.org/1999/xlink" viewBox="0 0 96.74 96.74"><defs><style>.cls-1{fill:#fff;}.cls-2{fill:url(#Безымянный_градиент_18);}.cls-3{fill:url(#Безымянный_градиент_18-2);}</style><linearGradient id="Безымянный_градиент_18" x1="33.12" y1="33.12" x2="63.62" y2="33.12" gradientUnits="userSpaceOnUse"><stop offset="0" stop-color="#09449d"/><stop offset="1" stop-color="#29abe2"/></linearGradient><linearGradient id="Безымянный_градиент_18-2" x1="25.49" y1="66.16" x2="71.24" y2="66.16" xlink:href="#Безымянный_градиент_18"/></defs><title>login-i</title><g id="Слой_2" data-name="Слой 2"><g id="Слой_1-2" data-name="Слой 1"><circle class="cls-1" cx="48.37" cy="48.37" r="48.37"/><path class="cls-2" d="M48.37,48.37A15.25,15.25,0,1,0,33.12,33.12,15.25,15.25,0,0,0,48.37,48.37Zm0-25.42A10.17,10.17,0,1,1,38.2,33.12,10.17,10.17,0,0,1,48.37,23Z"/><path class="cls-3" d="M48.37,53.45A22.9,22.9,0,0,0,25.49,76.33a2.54,2.54,0,0,0,5.08,0,17.79,17.79,0,0,1,35.58,0,2.54,2.54,0,0,0,5.08,0A22.9,22.9,0,0,0,48.37,53.45Z"/></g></g></svg>