<svg xmlns="http://www.w3.org/2000/svg" xmlns:xlink="http://www.w3.org/1999/xlink" viewBox="0 0 221.1 286.73"><defs><style>.cls-1{fill:url(#Безымянный_градиент_22);}.cls-2{fill:url(#Безымянный_градиент_22-2);}.cls-3{fill:url(#Безымянный_градиент_7);}.cls-4{fill:url(#Безымянный_градиент_7-2);}.cls-5{fill:url(#Безымянный_градиент_26);}.cls-6{fill:url(#Безымянный_градиент_7-3);}</style><linearGradient id="Безымянный_градиент_22" x1="-4153.23" y1="-3839.71" x2="-4153" y2="-3869.11" gradientTransform="matrix(-0.83, -0.56, 0.56, -0.83, -1255.02, -5450.17)" gradientUnits="userSpaceOnUse"><stop offset="0" stop-color="#09449d"/><stop offset="0.04" stop-color="#0e48a7"/><stop offset="0.12" stop-color="#1b54c0"/><stop offset="0.21" stop-color="#3167ea"/><stop offset="0.25" stop-color="#3c71ff"/><stop offset="0.4" stop-color="#4e82fd"/><stop offset="0.69" stop-color="#7daef7"/><stop offset="0.87" stop-color="#9ccaf3"/><stop offset="1" stop-color="#ccf3f8"/></linearGradient><linearGradient id="Безымянный_градиент_22-2" x1="408.19" y1="-4373.92" x2="434.14" y2="-4439.72" gradientTransform="matrix(-0.64, 0.77, -0.77, -0.64, -3000.78, -2871.39)" xlink:href="#Безымянный_градиент_22"/><linearGradient id="Безымянный_градиент_7" x1="-18.38" y1="245" x2="73" y2="160.31" gradientUnits="userSpaceOnUse"><stop offset="0" stop-color="#09449d"/><stop offset="0.13" stop-color="#134da3"/><stop offset="0.34" stop-color="#2c64b2"/><stop offset="0.62" stop-color="#568bca"/><stop offset="0.94" stop-color="#90bfec"/><stop offset="1" stop-color="#9ccaf3"/></linearGradient><linearGradient id="Безымянный_градиент_7-2" x1="68.74" y1="90.87" x2="113.61" y2="5.65" xlink:href="#Безымянный_градиент_7"/><linearGradient id="Безымянный_градиент_26" x1="54.78" y1="210.72" x2="145" y2="38.89" gradientUnits="userSpaceOnUse"><stop offset="0" stop-color="#09449d"/><stop offset="0.1" stop-color="#134da3"/><stop offset="0.27" stop-color="#2c64b2"/><stop offset="0.49" stop-color="#568bca"/><stop offset="0.75" stop-color="#90bfec"/><stop offset="0.8" stop-color="#9ccaf3"/><stop offset="1" stop-color="#ccf3f8"/></linearGradient><linearGradient id="Безымянный_градиент_7-3" x1="134.97" y1="194.95" x2="189.37" y2="9.42" xlink:href="#Безымянный_градиент_7"/></defs><title>logo-svg</title><g id="Слой_2" data-name="Слой 2"><g id="Слой_1-2" data-name="Слой 1"><path class="cls-1" d="M17.37,55.44a17,17,0,0,1,10.52-6.79c4.8-.82,11,.05,11.63,2.51s-5.46,4-5.92,8.33c-.66,6.07,10.86,9.35,10.2,13.81S30.45,83.53,21.66,77.59A16,16,0,0,1,17.37,55.44Z"/><path class="cls-2" d="M116,279.65c-4.33-8.25,10.88-19.45,6-30.92s-24.71-10-24.77-14.18c-.08-5.92,39-24.66,59.31-4.18,10.6,10.69,15.44,31.45,4.38,44.9C147.5,291.55,120.41,288.08,116,279.65Z"/><path class="cls-3" d="M68.69,253.68c-5.58-1.46-36.74-10-53.82-34.14a91.41,91.41,0,0,1-11.21-22.4,78.74,78.74,0,0,1,43.79-96.36,74.38,74.38,0,0,0-9.25,15.28,97.35,97.35,0,0,0-5,15.53,125.44,125.44,0,0,0,1.72,67.5,127.12,127.12,0,0,0,9.74,23A130.9,130.9,0,0,0,68.69,253.68Z"/><path class="cls-4" d="M139.39,47.53c0,.27,0,.53,0,.79A47.85,47.85,0,0,1,95.21,95.25h0c-.78,0-2.07.06-3.67.14-9.23.45-12.19,1.32-17,.35a25.92,25.92,0,0,1-4.75-1.44,47.32,47.32,0,0,0,4.43-2.14h0A44.62,44.62,0,0,0,97,61.88a31.84,31.84,0,0,0,1.22-8.77q0-1.16-.08-2.3A31.89,31.89,0,0,0,48.47,26.67c1.12-2.09,8-14.61,20.05-21.1A39.68,39.68,0,0,1,87.58.31h0Q90.53.17,93.5.18t5.77.13h0a47.82,47.82,0,0,1,40.11,47.23Z"/><path class="cls-5" d="M165.12,97.52a124.23,124.23,0,0,1-10.36,49.84,135.31,135.31,0,0,1-10.24,20c-7.4,11.85-16.69,26.74-32.39,34.3-4,1.9-15.65,6.87-15.65,6.87-1.71.73-2.91,1.16-5,2.18a36.48,36.48,0,0,0-10.09,6.64,44.65,44.65,0,0,0-11.71,20.42,43.9,43.9,0,0,0-1,15.94,130.9,130.9,0,0,1-24.06-31.58,127.12,127.12,0,0,1-9.74-23,124.61,124.61,0,0,1-5.53-36.82,132,132,0,0,1,3.81-30.69c5.64-25.45,13.07-30.35,16.22-32A20.29,20.29,0,0,1,53.75,98h0a46.41,46.41,0,0,1,26.08-3,100.93,100.93,0,0,0,11.71.45q1.87,0,3.67-.14h0a47.85,47.85,0,0,0,44.17-46.92c0-.26,0-.53,0-.79A47.82,47.82,0,0,0,99.28.31a40.77,40.77,0,0,1,20.61,2.6c14.42,6,22,20.11,30,34.78,3.24,6,5.23,10.71,5.68,11.81A124.24,124.24,0,0,1,165.12,97.52Z"/><path class="cls-6" d="M221.1,127.78q0,3.41-.18,6.78a79.56,79.56,0,0,1-69.23,72.17,77.5,77.5,0,0,1-10,.63c-11.8-.14-16.24-3.29-26.24-3.28a49.64,49.64,0,0,0-13.59,2c1.63-.92,4.68-2.69,8.34-5.16a128.31,128.31,0,0,0,44.58-53.52,125,125,0,0,0,.78-97.86,121,121,0,0,0-5.68-11.81A116.4,116.4,0,0,0,121.17,3.58C133.31,6.35,163.57,15,188.33,42.4c1.56,1.72,18.82,21.22,27,47.18a127.23,127.23,0,0,1,5.65,31.68Q221.1,124.5,221.1,127.78Z"/></g></g></svg>